<svg width="256" height="256" viewBox="0 0 256 256" fill="none" xmlns="http://www.w3.org/2000/svg">
<rect width="256" height="256" rx="16" fill="#171717"/>
<path d="M132.6 200.123C124.064 201.626 111.635 201.605 102.752 200.123C92.8021 198.463 80.1355 192.026 73.3842 182.856C65.9221 172.721 64 166.715 64 155.454C64 146.07 67.7763 135.56 69.2551 132.182C73.0245 123.571 76.4123 117.167 81.0761 111.536C85.7399 105.906 93.654 98.0233 102.752 92.7681C110.956 88.0288 117.676 85.6362 129.046 83.384C130.72 83.0526 132.455 82.7758 134.194 82.5006C137.68 83.7961 145.188 86.3118 147.331 86.0115C149.475 85.7112 137.572 96.1464 137.947 97.2725C138.323 98.3986 148.224 96.8221 152.498 95.0203C156.773 93.2186 149.584 110.786 150.011 111.536C150.438 112.287 162.532 107.783 165.724 107.783C167.601 107.783 163.472 124.299 163.869 125.05C164.266 125.8 175.08 121.197 179.988 119.795C182.616 119.044 179.613 136.311 179.988 137.061C180.359 137.804 191.594 129.443 191.906 125.191C191.908 125.144 191.91 125.097 191.912 125.05C191.911 125.096 191.909 125.144 191.906 125.191C191.551 132.959 190.172 140.544 187.321 148.322C183.057 159.959 175.817 170.094 169.91 177.226C164.002 184.358 159.96 188.068 152.498 192.616C147.879 195.431 141.135 198.62 132.6 200.123Z" fill="#557FA5"/>
<path d="M134.194 82.5006C132.455 82.7758 130.72 83.0526 129.046 83.384C117.676 85.6362 110.956 88.0288 102.752 92.7681C93.654 98.0233 85.7399 105.906 81.0761 111.536C76.4123 117.167 73.0245 123.571 69.2551 132.182C67.7763 135.56 64 145.116 64 154.5C64 165.761 65.9221 172.721 73.3842 182.856C80.1355 192.026 92.8021 198.463 102.752 200.123C111.635 201.605 123.465 201.626 132 200.123C140.535 198.62 146.956 195.993 152.498 192.616C159.96 188.068 164.002 184.358 169.91 177.226C175.817 170.094 183.057 159.959 187.321 148.322C190.189 140.497 191.62 134.5 192.5 125.5M134.194 82.5006C140.288 81.5359 146.022 80 150.011 78C154 76 156 73.6831 157.466 69.8708C159.343 64.991 158.592 60.4866 157.466 56.3576C156.34 52.2286 166.5 57.5 171.5 62C176.5 66.5 181.905 73 185.5 80.5C189.095 88 191.256 95.7711 191.912 101.5C194.007 119.795 192.695 121.079 192.5 125.5M134.194 82.5006C137.68 83.7961 144.946 86.3337 146.956 87.1376C148.833 87.8884 137.572 96.1464 137.947 97.2725C138.323 98.3986 147.948 95.7711 152.587 95.7711C156.428 95.7711 149.584 110.786 150.011 111.536C150.438 112.287 162.532 107.783 165.724 107.783C167.601 107.783 163.472 124.299 163.869 125.05C164.266 125.8 175.08 121.197 179.988 119.795C182.616 119.044 179.613 136.311 179.988 137.061C180.364 137.812 191.912 131.512 192.5 125.5" stroke="#557FA5" stroke-width="7.5"/>
</svg>
